<?xml version="1.0" encoding="UTF-8"?>
<svg width="50px" height="50px" viewBox="0 0 50 50" version="1.1" xmlns="http://www.w3.org/2000/svg" xmlns:xlink="http://www.w3.org/1999/xlink">
    <!-- Generator: Sketch 61.2 (89653) - https://sketch.com -->
    <title>QR@1x</title>
    <desc>Created with Sketch.</desc>
    <defs>
        <path d="M2,0 L329.585786,0 C329.851003,4.12747982e-14 330.105357,0.10535684 330.292893,0.292893219 L379.707107,49.7071068 C379.894643,49.8946432 380,50.1489971 380,50.4142136 L380,268 C380,269.104569 379.104569,270 378,270 L2,270 C0.8954305,270 1.3527075e-16,269.104569 0,268 L0,2 C-1.3527075e-16,0.8954305 0.8954305,2.02906125e-16 2,0 Z" id="path-1"></path>
        <filter x="-5.7%" y="-8.7%" width="112.4%" height="117.4%" filterUnits="objectBoundingBox" id="filter-2">
            <feOffset dx="2" dy="0" in="SourceAlpha" result="shadowOffsetOuter1"></feOffset>
            <feGaussianBlur stdDeviation="7.5" in="shadowOffsetOuter1" result="shadowBlurOuter1"></feGaussianBlur>
            <feColorMatrix values="0 0 0 0 0   0 0 0 0 0   0 0 0 0 0  0 0 0 0.15 0" type="matrix" in="shadowBlurOuter1"></feColorMatrix>
        </filter>
    </defs>
    <g id="Page-1" stroke="none" stroke-width="1" fill="none" fill-rule="evenodd">
        <g id="编组-6" transform="translate(-330.000000, 0.000000)">
            <rect id="矩形" fill="#FFFFFF" x="0" y="0" width="380" height="270" rx="2"></rect>
            <g id="编组-5">
                <g id="3.Icons/Filled/qr-code" opacity="0.5" transform="translate(347.000000, 5.000000)" fill="#000000" fill-opacity="0.9">
                    <g id="Group" transform="translate(3.500000, 3.500000)">
                        <path d="M16.3333333,2.33333333 L16.3333333,4.66666667 L18.6666667,4.66666667 L18.6666667,2.33333333 L16.3333333,2.33333333 Z M9.33333333,18.6666667 L11.6666667,18.6666667 L11.6666667,21 L9.33333333,21 L9.33333333,18.6666667 Z M18.6666667,9.33333333 L21,9.33333333 L21,11.6666667 L18.6666667,11.6666667 L18.6666667,9.33333333 Z M9.33333333,14 L11.6666667,14 L11.6666667,16.3333333 L9.33333333,16.3333333 L9.33333333,14 Z M14,9.33333333 L16.3333333,9.33333333 L16.3333333,11.6666667 L14,11.6666667 L14,9.33333333 Z M1.16666667,0 L10.5,0 C11.1443322,0 11.6666667,0.522334459 11.6666667,1.16666667 L11.6666667,10.5 C11.6666667,11.1443322 11.1443322,11.6666667 10.5,11.6666667 L1.16666667,11.6666667 C0.522334459,11.6666667 0,11.1443322 0,10.5 L0,1.16666667 C0,0.522334459 0.522334459,0 1.16666667,0 Z M2.33333333,2.33333333 L2.33333333,9.33333333 L9.33333333,9.33333333 L9.33333333,2.33333333 L2.33333333,2.33333333 Z M4.66666667,4.66666667 L7,4.66666667 L7,7 L4.66666667,7 L4.66666667,4.66666667 Z M15.1666667,0 L19.8333333,0 C20.4776655,0 21,0.522334459 21,1.16666667 L21,5.83333333 C21,6.47766554 20.4776655,7 19.8333333,7 L15.1666667,7 C14.5223345,7 14,6.47766554 14,5.83333333 L14,1.16666667 C14,0.522334459 14.5223345,0 15.1666667,0 Z M15.1666667,14 L19.8333333,14 C20.4776655,14 21,14.5223345 21,15.1666667 L21,19.8333333 C21,20.4776655 20.4776655,21 19.8333333,21 L15.1666667,21 C14.5223345,21 14,20.4776655 14,19.8333333 L14,15.1666667 C14,14.5223345 14.5223345,14 15.1666667,14 Z M16.3333333,16.3333333 L16.3333333,18.6666667 L18.6666667,18.6666667 L18.6666667,16.3333333 L16.3333333,16.3333333 Z M1.16666667,14 L5.83333333,14 C6.47766554,14 7,14.5223345 7,15.1666667 L7,19.8333333 C7,20.4776655 6.47766554,21 5.83333333,21 L1.16666667,21 C0.522334459,21 0,20.4776655 0,19.8333333 L0,15.1666667 C0,14.5223345 0.522334459,14 1.16666667,14 Z M2.33333333,16.3333333 L2.33333333,18.6666667 L4.66666667,18.6666667 L4.66666667,16.3333333 L2.33333333,16.3333333 Z" id="图标颜色"></path>
                    </g>
                </g>
                <g id="矩形">
                    <use fill="black" fill-opacity="1" filter="url(#filter-2)" xlink:href="#path-1"></use>
                    <use fill="#FFFFFF" fill-rule="evenodd" xlink:href="#path-1"></use>
                </g>
            </g>
        </g>
    </g>
</svg>